<svg height="1024" preserveAspectRatio="none" viewBox="0 0 1024 1024" width="1024" xmlns="http://www.w3.org/2000/svg"><path d="m969.6 351.25q-8.6-20.85-19.4-40.85-6.1-11.35-12.9-22.4-29.35-47.55-71.55-89.8-138.25-138.25-333.8-138.25-195.5 0-333.75 138.25-138.25 138.25-138.25 333.75 0 195.55 138.25 333.8 138.25 138.2 333.75 138.2 195.55 0 333.8-138.2 76.15-76.2 110.35-169.75 27.85-76.25 27.85-164.05 0-67.35-16.4-127.95-1.85-6.85-3.9-13.6-6.15-19.95-14.05-39.15z" fill-opacity=".098039"/><path d="m727.9 90.75q-31.7-16.5-65.6-27.6-34.4-11.25-70.15-16.95-36.1-5.55-72.55-6.1-39.75-.6-79.05 4.85-36.9 5.15-72.55 16.3-35.25 10.95-67.95 27.7-33.25 16.85-63.2 39-31.1 23-58.5 50.4-25.4 25.3-47 53.85-20.75 27.55-37.25 57.9-18.9 34.85-31.2 72.6-10.65 32.7-16.25 66.6-5.75 35.15-6.6 70.6-.85 36 3.3 71.9 3.95 34.45 13 67.95 10.4 38.45 27.45 74.2 17.35 36.2 40.65 68.7 20.75 28.85 45.3 54.55 27.05 28.25 57.9 52.25 30.7 23.75 65.05 42.05 30.7 16.3 63.5 27.55 33.9 11.65 69.15 17.7 35.4 6.2 71.4 7.2 37.4 1 74.7-3.2 38.05-4.45 74.7-14.8 37.1-10.6 71.8-27.45 34.95-17.15 66.55-40.05 29.45-21.4 55.5-46.75 27.85-27.05 51.35-57.85 24-31.35 42.15-66.35 17.65-34.1 29.15-70.65 11.75-37.3 16.9-76.1 5.25-39.55 4.45-79.35-.75-37.3-6.9-73.95-4.15-24.85-11.05-49.05-10.85-37.95-28.35-73.35-17.45-35.3-40.65-67.1-23.35-31.9-51.2-59.75-26.65-26.6-56.75-49.05-29.05-21.65-61.2-38.4z" fill="#cb4525"/><path d="m537 563.15-201.25 218.85 201.5 201.5q17.1140625-.82617187 34.2-2.75 38.05-4.45 74.7-14.8 37.1-10.6 71.8-27.45 34.95-17.15 66.55-40.05 25.30722656-18.38964844 48.1-39.7zm396.5 164.35q17.65-34.1 29.15-70.65 11.75-37.3 16.9-76.1 2.82285156-21.265625 3.9-42.6l-290.7-290.7-158.85 156.85 92.7 194.5 232.9 232.9q16.82070313-18.15214844 31.85-37.85 24-31.35 42.15-66.35z" fill-opacity=".2"/><path d="m544.65 331.15q0-13-9.15-22.15-9.35-9.35-22.35-9.35-12.9 0-22.15 9.25l-107 107q-33.7 33.65 0 67.2l106.9 107q9.4 9.25 22.35 9.25 13-.15 22.25-9.25 9.1-9.15 9.25-22.15-.15-13.05-9.35-22.25l-96.15-96.2 96.25-96.2q9.15-9.15 9.15-22.15m-276.3 124.2q-9.15 9.15-9.15 22.15 0 13 9.15 22.15l96.25 96.2-96.15 96.2q-9.2 9.2-9.35 22.25.15 13 9.25 22.15 9.25 9.1 22.25 9.25 12.95 0 22.35-9.25l106.9-107q33.7-33.55 0-67.2l-107-107q-9.25-9.25-22.15-9.25-13 0-22.35 9.35z" fill="#fff" transform="matrix(1.28700256 0 0 1.28700256 -5.2 -160.65)"/></svg>