<svg viewBox="0 0 512 512" xmlns="http://www.w3.org/2000/svg"><g fill-rule="evenodd"><path d="m471.95 253.05c0 120.9-98.01 218.9-218.9 218.9-120.9 0-218.9-98.01-218.9-218.9 0-120.9 98.01-218.9 218.9-218.9 120.9 0 218.9 98.01 218.9 218.9" fill="#ae4a32"/><path d="m266.28 104.91c-11.787.015-18.299.894-27.938 3.813-5.311 1.608-12.05 4.166-12.844 4.875-.363.324 2.789 10.781 3.25 10.781.018 0 .326-.117.438-.156.254.658.471 1.156.563 1.156.018 0 .326-.117.438-.156.254.658.471 1.156.563 1.156.017 0 .307-.122.406-.156.254.658.503 1.156.594 1.156.017 0 .307-.122.406-.156.254.658.471 1.125.563 1.125.018 0 .326-.117.438-.156.259.675.47 1.156.563 1.156.018 0 .326-.117.438-.156.259.675.47 1.156.563 1.156.018 0 .326-.117.438-.156.259.675.47 1.156.563 1.156.018 0 .326-.117.438-.156.254.658.471 1.156.563 1.156.017 0 .307-.122.406-.156.254.658.503 1.156.594 1.156.017 0 .307-.122.406-.156.254.658.471 1.125.563 1.125.018 0 .326-.117.438-.156.259.674.47 1.156.563 1.156.018 0 .326-.117.438-.156.259.674.47 1.156.563 1.156.018 0 .326-.117.438-.156.259.674.47 1.156.563 1.156.018 0 .326-.117.438-.156.144.373.277.723.375.906-2.359.751-4.807 1.629-7.5 2.688l-1.281.469 1.688 4.844c.929 2.661 1.734 4.897 1.781 4.969.016.024.259-.045.594-.156.081.22.396 1.109.406 1.125.005.013 0 .031 0 .031.016.024.255-.043.594-.156.077.208.365 1.078.375 1.094.009.026.031.062.031.063.016.024.257-.044.594-.156.074.2.365 1.047.375 1.063.014.04.031.093.031.094.015.023.243-.05.563-.156.07.19.365 1.016.375 1.031.018.053.03.124.031.125.015.023.269-.079.594-.188.071.19.365 1.016.375 1.031.023.066.03.123.031.125.015.023.245-.051.563-.156.07.19.365 1.016.375 1.031.028.079.061.123.063.125.015.023.264-.046.594-.156.066.179.334.986.344 1 .032.093.061.154.063.156.015.023.26-.045.594-.156.063.171.335.955.344.969.037.106.061.185.063.188.015.023.246-.051.563-.156.061.163.335.924.344.938.042.119.092.216.094.219.015.023.264-.046.594-.156.056.151.304.893.313.906.046.132.06.246.063.25.015.023.265-.046.594-.156.054.144.304.862.313.875.051.146.091.246.094.25.015.023.265-.046.594-.156.054.144.304.863.313.875.055.159.091.277.094.281.015.022.251-.053.563-.156.049.132.303.797.313.813-3.986 1.132-7.906 2.674-7.906 3.188 0 .296.667 2.499 1.469 4.906 1.157 3.474 1.559 4.253 2.156 4.063.366.77.647 1.061.969.969.368.784.649 1.053.969.969.373.794.675 1.064 1 .969.379.811.667 1.078 1 .969.363.773.654 1.083.969 1 .375.801.672 1.073 1 .969.361.77.656 1.052.969.969.374.804.672 1.076 1 .969.376.812.672 1.076 1 .969.375.811.643 1.104.969 1 .367.787.68 1.071 1 .969.381.82.663 1.067 1 .938.376.822.643 1.107.969 1 .382.83.664 1.097 1 .969.367.797.651 1.101.969 1 .38.826.666 1.065 1 .938.382.839.635 1.094.969.969.385.85.665 1.127 1 1 .387.844.657 1.116 1 .969.057.171.094.257.125.313.314.611.551.767.844.656.039.087.088.208.125.281.007.015.025.051.031.063.306.588.526.733.813.625.002.004.03-.004.031 0 .094.283.142.411.188.438.287.526.507.636.781.531.393.876.657 1.148 1 1 .069.207.119.307.156.375.295.559.534.7.813.594.049.108.111.257.156.344.007.014.025.051.031.063.299.558.525.686.813.563.075.225.147.364.188.438.005.009.026.022.031.031.007.008-.007.027 0 .031.268.474.49.568.75.469.036.081.091.181.125.25.025.065.043.184.063.219.005.009.026.023.031.031.01.012.022.026.031.031.272.475.482.553.75.438.081.242.144.389.188.469.005.009.026.022.031.031.013.017.019.056.031.063.263.447.489.55.75.438.126.377.189.496.25.531.262.445.459.549.719.438.13.391.218.526.281.563.255.425.464.516.719.406.135.404.185.556.25.594.252.417.467.483.719.375.073.165.154.383.219.5.028.054.038.111.063.125.242.387.475.448.719.344.075.17.153.412.219.531.029.056.037.11.063.125.236.371.448.446.688.344.173.519.259.656.344.656.224.335.427.411.656.313.186.56.25.703.344.688.218.319.401.378.625.281.192.576.279.703.375.688.214.311.404.376.625.281.197.593.276.735.375.719.209.297.377.343.594.25.221.665.289.8.406.75.198.265.387.339.594.25.227.683.286.802.406.75.191.247.362.305.563.219.233.7.314.834.438.781.19.245.363.273.563.188.239.718.311.867.438.813.179.217.341.238.531.156.245.736.339.868.469.813.178.216.342.237.531.156.251.754.336.901.469.844.165.181.323.232.5.156.257.772.332.902.469.844.169.194.351.203.531.125.263.79.329.935.469.875.009-.004.023.004.031 0 .151.148.306.164.469.094.269.808.357.968.5.906.021-.009.042-.022.063-.031.144.132.281.161.438.094.275.826.354 1 .5.938.021-.009.042-.022.063-.031.134.111.26.125.406.063.281.844.382 1 .531.938.021-.009.042-.022.063-.031.133.109.262.125.406.063.287.862.379 1.034.531.969.012-.005.019-.026.031-.031.133.11.262.125.406.063.293.88.376 1.036.531.969.029-.013.064-.019.094-.031.119.082.244.087.375.031.299.898.373 1.068.531 1 .029-.012.065-.019.094-.031.108.062.225.051.344 0 .305.916.401 1.101.563 1.031.041-.018.083-.045.125-.063.098.046.173.046.281 0 .311.934.429 1.133.594 1.063.05-.021.106-.041.156-.063.08.022.162.007.25-.031.317.952.426 1.166.594 1.094.059-.025.128-.038.188-.063.064.006.118-.001.188-.031.323.97.454 1.136.625 1.063.059-.025.128-.038.188-.063.064.006.118-.002.188-.031.329.988.419 1.169.594 1.094.079-.034.17-.06.25-.094.044-.004.079-.011.125-.031.335 1.01.447 1.201.625 1.125.07-.03.148-.064.219-.094.053 0 .099-.038.156-.063.341 1.024.444 1.234.625 1.156.12-.052.252-.106.375-.156.332.993.444 1.234.625 1.156.12-.051.253-.106.375-.156.338 1.01.441 1.235.625 1.156.109-.047.233-.079.344-.125.323.957.474 1.172.656 1.094.109-.047.233-.079.344-.125.329.976.471 1.205.656 1.125.101-.043.209-.082.313-.125.326.961.47 1.205.656 1.125.119-.051.253-.106.375-.156.327.964.437 1.237.625 1.156.108-.047.233-.079.344-.125.323.947.468 1.206.656 1.125.108-.046.234-.08.344-.125.32.934.467 1.206.656 1.125.109-.047.233-.079.344-.125.313.911.467 1.175.656 1.094.109-.047.233-.079.344-.125.318.924.464 1.208.656 1.125.101-.044.209-.082.313-.125.316.916.463 1.208.656 1.125.107-.046.234-.08.344-.125.32.927.461 1.209.656 1.125.1-.043.211-.083.313-.125.319.918.491 1.21.688 1.125.099-.043.212-.083.313-.125.335.97.485 1.212.688 1.125.1-.043.21-.083.313-.125.33.954.484 1.212.688 1.125.099-.043.211-.083.313-.125.331.954.483 1.182.688 1.094.093-.04.187-.086.281-.125.34.98.479 1.215.688 1.125.099-.042.212-.083.313-.125.34.98.477 1.215.688 1.125.091-.039.188-.087.281-.125.341.98.507 1.216.719 1.125.099-.043.211-.083.313-.125.336.96.475 1.216.688 1.125.091-.039.188-.086.281-.125.338.966.504 1.217.719 1.125.091-.039.189-.087.281-.125.338.961.503 1.186.719 1.094.089-.038.19-.056.281-.094.338.959.501 1.187.719 1.094.08-.034.169-.06.25-.094.336.951.501 1.188.719 1.094.088-.038.192-.057.281-.094.337.951.499 1.188.719 1.094.09-.039.189-.087.281-.125.341.962.496 1.221.719 1.125.079-.034.169-.06.25-.094.338.951.527 1.19.75 1.094.087-.038.192-.057.281-.094.334.931.496 1.158.719 1.063.08-.035.168-.06.25-.094.344.963.522 1.192.75 1.094.073-.031.145-.063.219-.094.345.967.521 1.192.75 1.094.088-.038.192-.057.281-.094.341.949.489 1.192.719 1.094.08-.034.168-.06.25-.094.345.959.518 1.193.75 1.094.079-.034.169-.06.25-.094.342.948.517 1.194.75 1.094.08-.034.169-.06.25-.094.344.951.516 1.163.75 1.063.071-.031.146-.064.219-.094.348.964.544 1.196.781 1.094.072-.031.145-.063.219-.094.35.967.511 1.197.75 1.094.078-.034.17-.061.25-.094.347.955.51 1.197.75 1.094.071-.03.147-.064.219-.094.352.967.539 1.198.781 1.094.079-.034.17-.061.25-.094.352.965.506 1.198.75 1.094.071-.031.146-.064.219-.094.35.955.537 1.199.781 1.094.07-.03.147-.064.219-.094.352.961.535 1.168.781 1.063.06-.026.127-.037.188-.063.351.954.534 1.169.781 1.063.07-.03.148-.064.219-.094.359.981.53 1.202.781 1.094.071-.03.147-.064.219-.094.357.969.529 1.202.781 1.094.061-.026.125-.068.188-.094.36.976.558 1.203.813 1.094.071-.031.146-.064.219-.094.355.958.527 1.203.781 1.094.058-.025.128-.038.188-.063.353.948.558 1.14.813 1.031.06-.026.127-.037.188-.063.357.957.556 1.173.813 1.063.059-.025.127-.037.188-.063.36.964.522 1.174.781 1.063.059-.025.128-.038.188-.063.362.972.551 1.175.813 1.063.058-.025.129-.038.188-.063.36.961.551 1.175.813 1.063.05-.022.105-.041.156-.063.364.97.58 1.176.844 1.063.058-.025.128-.038.188-.063.36.953.549 1.145.813 1.031.051-.022.104-.041.156-.063.37.987.575 1.178.844 1.063.051-.022.105-.041.156-.063.366.97.544 1.178.813 1.063.059-.025.128-.038.188-.063.369.978.542 1.179.813 1.063.058-.025.129-.038.188-.063.367.968.541 1.179.813 1.063.05-.022.105-.041.156-.063.37.976.57 1.18.844 1.063.05-.021.106-.041.156-.063.365.955.571 1.148.844 1.031.042-.018.082-.045.125-.063.377.993.597 1.182.875 1.063.042-.018.083-.045.125-.063.38 1 .563 1.183.844 1.063.05-.021.106-.041.156-.063.374.98.564 1.183.844 1.063.049-.021.106-.042.156-.063.374.975.563 1.183.844 1.063.05-.022.105-.041.156-.063.369.956.564 1.183.844 1.063.041-.018.083-.045.125-.063.372.964.593 1.184.875 1.063.042-.018.083-.045.125-.063.367.943.594 1.152.875 1.031.042-.018.083-.045.125-.063.378.98.557 1.186.844 1.063.041-.018.083-.045.125-.063.095.243.173.442.25.594-1.18-.649-4.547-2.433-9.656-5.156-.221-.243-.454-.467-.719-.688-.292-.364-.647-.712-1.031-1.031-.275-.339-.613-.637-.969-.938-.302-.382-.659-.73-1.063-1.063-.298-.37-.637-.709-1.031-1.031-.291-.358-.648-.656-1.031-.969-.291-.357-.617-.719-1-1.031-.305-.373-.687-.707-1.094-1.031-.284-.342-.598-.669-.969-.969-.284-.346-.628-.665-1-.969-.294-.364-.639-.714-1.031-1.031-.3-.367-.661-.713-1.063-1.031-.28-.338-.571-.673-.938-.969-.302-.374-.655-.708-1.063-1.031-.289-.351-.617-.694-1-1-.272-.332-.581-.645-.938-.938-.296-.371-.662-.709-1.063-1.031-.308-.38-.674-.735-1.094-1.063-.274-.329-.547-.649-.906-.938-.264-.33-.589-.615-.938-.906-.014-.018-.017-.045-.031-.063-.018-.015-.044-.017-.063-.031-.268-.332-.583-.645-.938-.938-.018-.023-.044-.04-.063-.063-.012-.009-.02-.022-.031-.031-.268-.328-.585-.649-.938-.938-.009-.011-.022-.02-.031-.031-.023-.019-.039-.044-.063-.063-.276-.333-.603-.646-.969-.938-.009-.011-.022-.02-.031-.031-.012-.009-.019-.022-.031-.031-.287-.345-.585-.7-.969-1-.266-.325-.586-.62-.938-.906-.273-.346-.601-.665-.969-.969-.299-.385-.677-.73-1.094-1.063-.293-.366-.629-.715-1.031-1.031-.279-.342-.593-.67-.969-.969-.276-.344-.627-.668-1-.969-.289-.365-.633-.714-1.031-1.031-.293-.366-.627-.714-1.031-1.031-.27-.332-.575-.646-.938-.938-.291-.369-.627-.712-1.031-1.031-.292-.363-.659-.717-1.063-1.031-.273-.334-.569-.676-.938-.969-.293-.368-.623-.713-1.031-1.031-.271-.333-.572-.646-.938-.938-.272-.346-.596-.666-.969-.969-.275-.354-.619-.691-1-1-.291-.376-.651-.706-1.063-1.031-.296-.375-.613-.739-1.031-1.063-.262-.322-.585-.623-.938-.906-.267-.341-.57-.669-.938-.969-.283-.369-.632-.71-1.031-1.031-.272-.347-.592-.696-.969-1-.274-.351-.62-.662-1-.969-.304-.393-.656-.788-1.094-1.125-.266-.325-.577-.653-.938-.938-.282-.353-.608-.693-1-1-.293-.366-.619-.715-1.031-1.031-.274-.336-.563-.644-.938-.938-.276-.345-.589-.699-.969-1-.271-.341-.565-.67-.938-.969-.298-.38-.64-.735-1.063-1.063-.266-.326-.548-.651-.906-.938-.259-.326-.557-.618-.906-.906-.009-.011-.023-.02-.031-.031-.012-.01-.019-.022-.031-.031-.25-.316-.542-.625-.875-.906-.269-.351-.601-.691-.969-1-.277-.362-.618-.683-1-1-.288-.371-.603-.74-1-1.063-.275-.345-.568-.667-.938-.969-.29-.364-.607-.716-1-1.031-.213-.262-.455-.513-.719-.75-.285-.384-.646-.727-1.031-1.063-.275-.355-.609-.688-.969-1-.276-.353-.58-.691-.938-1-.273-.343-.591-.668-.938-.969-.264-.33-.546-.646-.875-.938-.232-.292-.504-.55-.781-.813-.299-.389-.629-.756-1-1.094-.276-.344-.576-.667-.906-.969-.276-.34-.581-.671-.906-.969-.19-.23-.385-.445-.594-.656-.07-.09-.147-.163-.219-.25-.118-.144-.248-.299-.375-.438-.059-.065-.127-.125-.188-.188-.057-.059-.128-.098-.188-.156-.014-.018-.017-.044-.031-.063-.068-.083-.118-.169-.188-.25-.219-.267-.437-.533-.688-.781-.274-.363-.577-.7-.906-1.031-.303-.409-.659-.786-1.031-1.156-.286-.378-.592-.749-.938-1.094-.302-.4-.632-.762-1-1.125-.304-.398-.631-.796-1-1.156-.283-.367-.568-.727-.906-1.063-.284-.372-.598-.723-.938-1.063-.283-.373-.599-.753-.938-1.094-.3-.397-.637-.764-1-1.125-.288-.378-.593-.717-.938-1.063-.438-.58-.929-1.124-1.5-1.625-2.315-2.032-4.287-2.787-7.469-2.781-8.696.015-15.317 9.542-12.469 17.938l.906 2.688-2.875 5.531c-1.585 3.046-3.1 5.512-3.344 5.469-.243-.043-25.24-13.205-55.56-29.25-35.591-18.832-55.26-28.994-55.47-28.656-.789 1.277-1.534 14.938-1.25 22.906 1.08 30.25 10.662 57.32 28.688 81.09 7.392 9.751 16.08 18.388 25.719 25.781.413.328.833.645 1.25.969.122.097.252.185.375.281.023.018.04.044.063.063.205.161.419.309.625.469.034.028.059.066.094.094.181.14.349.298.531.438.069.056.149.1.219.156.395.302.789.609 1.188.906.072.055.147.102.219.156.034.028.06.066.094.094.137.104.269.209.406.313.082.063.168.125.25.188.023.019.04.044.063.063.147.111.29.233.438.344.083.063.167.124.25.188.023.019.04.044.063.063.136.104.27.209.406.313.03.023.064.039.094.063.08.067.169.121.25.188.034.028.059.066.094.094.034.027.059.067.094.094.242.184.476.38.719.563.071.055.147.102.219.156.169.134.331.273.5.406.124.095.251.187.375.281.104.082.208.168.313.25.129.1.246.213.375.313.291.228.582.462.875.688.158.124.31.252.469.375.359.284.701.595 1.063.875.123.097.252.185.375.281.094.073.187.146.281.219.308.245.628.477.938.719.04.033.084.061.125.094.046.037.079.088.125.125.023.018.039.045.063.063.606.488 1.23.96 1.844 1.438.312.252.624.501.938.75.023.019.04.044.063.063.187.148.375.291.563.438.063.051.125.105.188.156.176.138.354.27.531.406.063.051.125.105.188.156.113.087.231.164.344.25.313.258.622.526.938.781.052.043.105.082.156.125.11.089.233.162.344.25.029.024.065.039.094.063.107.089.205.192.313.281.339.275.69.541 1.031.813.085.07.165.149.25.219.051.043.105.082.156.125.104.084.208.166.313.25.011.009.02.022.031.031.302.237.602.485.906.719.158.124.31.252.469.375.052.042.104.083.156.125.296.234.577.488.875.719.134.106.272.207.406.313.387.31.766.632 1.156.938.093.074.188.145.281.219.385.311.768.63 1.156.938.017.014.045.017.063.031.115.092.198.221.313.313.379.309.774.602 1.156.906.103.084.209.166.313.25.279.229.563.46.844.688.239.198.478.398.719.594.228.189.458.375.688.563.599.499 1.205.981 1.813 1.469.377.316.776.595 1.156.906.118.1.226.213.344.313.058.047.129.078.188.125.169.145.33.293.5.438.07.055.149.101.219.156.018.014.045.017.063.031.437.376.871.755 1.313 1.125.157.124.312.252.469.375.028.024.066.038.094.063.69.572 1.362 1.162 2.063 1.719.063.051.124.105.188.156.355.292.705.587 1.063.875.109.089.204.192.313.281.082.065.168.122.25.188.303.251.601.502.906.75.227.189.459.376.688.563.022.019.04.044.063.063.073.061.145.126.219.188.023.018.04.044.063.063.394.334.79.671 1.188 1 .04.034.085.06.125.094.155.127.314.248.469.375.311.264.625.52.938.781.079.067.171.12.25.188.707.61 1.406 1.219 2.125 1.813.086.07.164.149.25.219.05.044.106.081.156.125.029.023.065.039.094.063.145.126.292.25.438.375-19.644-4.315-36.744-12.229-51.28-23.781-1.989-1.58-3.782-2.875-4-2.875s-1.528 3.639-2.906 8.094c-4.626 14.953-13.493 40.896-16.813 49.19-3.694 9.228-5.764 13.955-9.906 22.688l-2.844 6h1.469l-.469 1h1.469l-.469 1h1.469l-.469 1h1.469l-.469.969h1.469c-.131.277-.469 1-.469 1h1.438c-.131.276-.469 1-.469 1h1.469c-.13.275-.469 1-.469 1h1.469c-.13.275-.469 1-.469 1h1.469c-.13.275-.469 1-.469 1h1.469c-.13.275-.469 1-.469 1h1.469c-.125.265-.469.969-.469.969h1.438c-.131.276-.469 1-.469 1h1.469c-.131.277-.469 1-.469 1h1.469c-.13.275-.469 1-.469 1h1.469c-.13.275-.469 1-.469 1h1.469c-.13.275-.469 1-.469 1h1.469c-.125.265-.469.969-.469.969h1.469c-.131.277-.469 1-.469 1h1.438c-.131.277-.469 1-.469 1h1.469c-.13.275-.469 1-.469 1h1.469c-.13.275-.469 1-.469 1h1.469c-.13.275-.469 1-.469 1h1.469c-.125.265-.469.969-.469.969h1.469c-.131.277-.469 1-.469 1h1.438c-.131.276-.469 1-.469 1h1.469c-.13.275-.469 1-.469 1h1.469c-.13.275-.469 1-.469 1h1.469c-.13.275-.469 1-.469 1h1.469c-.125.265-.469.969-.469.969h1.469c-.131.277-.469 1-.469 1h1.438c-.131.276-.469 1-.469 1h1.469c-.13.275-.469 1-.469 1h1.469c-.13.275-.469 1-.469 1h1.469c-.13.275-.469 1-.469 1h1.469c-.13.275-.469 1-.469 1h1.469c-.125.265-.469.969-.469.969h1.469c-.131.277-.469 1-.469 1h1.438c-.131.277-.469 1-.469 1h1.469c-.13.275-.469 1-.469 1h1.469c-.13.275-.469 1-.469 1h1.469c-.13.275-.469 1-.469 1h1.469c-.125.264-.469.969-.469.969h1.469c-.131.277-.469 1-.469 1h1.438c-.131.277-.469 1-.469 1h1.469c-.13.275-.469 1-.469 1h1.469c-.13.275-.469 1-.469 1h1.469c-.13.275-.469 1-.469 1h1.469c-.125.264-.469.969-.469.969h1.469c-.131.277-.469 1-.469 1h1.438c-.131.276-.469 1-.469 1h1.469c-.13.275-.469 1-.469 1h1.469c-.13.275-.469 1-.469 1h1.469c-.13.275-.469 1-.469 1h1.469c-.125.264-.469.969-.469.969h1.469c-.131.277-.469 1-.469 1h1.438c-.131.276-.469 1-.469 1h1.469c-.131.277-.469 1-.469 1h1.469c-.13.275-.469 1-.469 1h1.469c-.13.275-.469 1-.469 1h1.469c-.13.275-.469 1-.469 1h1.469c-.125.264-.469.969-.469.969h1.469c-.118.249-.35.786-.406.906.206.036.419.058.625.094h.75c-.017.035-.04.078-.063.125 11.894 2 24.1 3.063 36.563 3.063 116.59 0 211.89-91.17 218.53-206.09-.052-.052-.103-.104-.156-.156-.328-.334-.666-.666-1-1-.323-.328-.64-.671-.969-1-.326-.332-.668-.668-1-1-.326-.332-.668-.668-1-1-.26-.264-.549-.517-.813-.781-.064-.062-.123-.125-.188-.188-.267-.271-.542-.541-.813-.813-.064-.062-.123-.125-.188-.188-.267-.271-.542-.541-.813-.813-.064-.062-.123-.125-.188-.188-.323-.328-.64-.671-.969-1-.326-.332-.668-.668-1-1-.326-.332-.668-.668-1-1-.26-.264-.549-.517-.813-.781-.064-.062-.124-.126-.188-.188-.267-.271-.542-.541-.813-.813-.064-.062-.123-.125-.188-.188-.267-.271-.542-.541-.813-.813-.064-.062-.123-.125-.188-.188-.256-.261-.521-.52-.781-.781-.074-.072-.145-.147-.219-.219-.323-.328-.64-.671-.969-1-.326-.332-.668-.668-1-1-.326-.332-.668-.668-1-1-.262-.266-.547-.515-.813-.781-.064-.062-.123-.125-.188-.188-.133-.136-.272-.271-.406-.406-.136-.136-.269-.271-.406-.406-.064-.062-.123-.125-.188-.188-.328-.334-.666-.666-1-1-.323-.328-.64-.671-.969-1-.326-.332-.668-.668-1-1-.326-.332-.668-.668-1-1-.26-.264-.549-.517-.813-.781-.064-.062-.123-.125-.188-.188-.267-.271-.542-.541-.813-.813-.064-.062-.123-.125-.188-.188-.267-.271-.542-.541-.813-.813-.064-.062-.123-.125-.188-.188-.323-.328-.64-.671-.969-1-.326-.332-.668-.668-1-1-.326-.332-.668-.668-1-1-.26-.264-.549-.517-.813-.781-.064-.062-.123-.125-.188-.188-.267-.271-.542-.541-.813-.813-.064-.062-.123-.125-.188-.188-.267-.271-.542-.541-.813-.813-.064-.062-.123-.125-.188-.188-.323-.328-.64-.671-.969-1-.326-.332-.668-.668-1-1-.326-.332-.668-.668-1-1-.26-.264-.549-.517-.813-.781-.064-.062-.124-.126-.188-.188-.265-.27-.544-.543-.813-.813-.064-.062-.123-.125-.188-.188-.267-.271-.542-.541-.813-.813-.064-.062-.123-.125-.188-.188-.328-.334-.666-.666-1-1-.323-.328-.64-.671-.969-1-.326-.332-.668-.668-1-1-.326-.332-.668-.668-1-1-.262-.266-.547-.515-.813-.781-.064-.062-.123-.125-.188-.188-.133-.136-.272-.271-.406-.406-.136-.136-.269-.271-.406-.406-.064-.062-.123-.125-.188-.188-.328-.334-.666-.666-1-1-.323-.328-.64-.671-.969-1-.326-.332-.668-.668-1-1-.326-.332-.668-.668-1-1-.26-.264-.549-.517-.813-.781-.064-.062-.123-.125-.188-.188-.267-.271-.542-.541-.813-.813-.064-.062-.123-.125-.188-.188-.267-.271-.542-.541-.813-.813-.064-.062-.123-.125-.188-.188-.323-.328-.64-.671-.969-1-.326-.332-.668-.668-1-1-.326-.332-.668-.668-1-1-.26-.264-.549-.517-.813-.781-.064-.062-.124-.126-.188-.188-.267-.271-.542-.541-.813-.813-.064-.062-.123-.125-.188-.188-.267-.271-.542-.541-.813-.813-.064-.062-.123-.125-.188-.188-.323-.328-.64-.671-.969-1-.326-.332-.668-.668-1-1-.326-.332-.668-.668-1-1-.326-.332-.668-.668-1-1-.262-.266-.547-.515-.813-.781-.064-.062-.123-.125-.188-.188-.133-.136-.272-.271-.406-.406-.136-.136-.269-.271-.406-.406-.064-.062-.123-.125-.188-.188-.328-.334-.666-.666-1-1-.323-.328-.64-.671-.969-1-.326-.332-.668-.668-1-1-.326-.332-.668-.668-1-1-.26-.264-.549-.517-.813-.781-.064-.062-.123-.125-.188-.188-.267-.271-.542-.541-.813-.813-.064-.062-.123-.125-.188-.188-.267-.271-.542-.541-.813-.813-.064-.062-.123-.125-.188-.188-.323-.328-.64-.671-.969-1-.326-.332-.668-.668-1-1-.326-.332-.668-.668-1-1-.26-.264-.549-.517-.813-.781-.064-.062-.123-.125-.188-.188-.267-.271-.542-.541-.813-.813-.064-.062-.123-.125-.188-.188-.267-.271-.542-.541-.813-.813-.064-.062-.123-.125-.188-.188-.323-.328-.64-.671-.969-1-.326-.332-.668-.668-1-1-.326-.332-.668-.668-1-1-.26-.264-.549-.517-.813-.781-.064-.062-.124-.126-.188-.188-.265-.27-.544-.543-.813-.813-.064-.062-.123-.125-.188-.188-.267-.271-.542-.541-.813-.813-.064-.062-.123-.125-.188-.188-.328-.334-.666-.666-1-1-.323-.328-.64-.671-.969-1-.326-.332-.668-.668-1-1-.326-.332-.668-.668-1-1-.262-.266-.547-.515-.813-.781-.064-.062-.123-.125-.188-.188-.133-.136-.272-.271-.406-.406-.136-.136-.269-.271-.406-.406-.064-.062-.123-.125-.188-.188-.328-.334-.666-.666-1-1-.323-.328-.64-.671-.969-1-.326-.332-.668-.668-1-1-.326-.332-.668-.668-1-1-.26-.264-.549-.517-.813-.781-.064-.062-.123-.125-.188-.188-.267-.271-.542-.541-.813-.813-.064-.062-.123-.125-.188-.188-.267-.271-.542-.541-.813-.813-.064-.062-.123-.125-.188-.188-.323-.328-.64-.671-.969-1-.326-.332-.668-.668-1-1-.326-.332-.668-.668-1-1-.26-.264-.549-.517-.813-.781-.064-.062-.123-.125-.188-.188-.267-.271-.542-.541-.813-.813-.064-.062-.123-.125-.188-.188-.267-.271-.542-.541-.813-.813-.064-.062-.123-.125-.188-.188-.323-.328-.64-.671-.969-1-.326-.332-.668-.668-1-1-.326-.332-.668-.668-1-1-.326-.332-.668-.668-1-1-.262-.266-.547-.515-.813-.781-.064-.062-.123-.125-.188-.188-.133-.136-.272-.271-.406-.406-.136-.136-.269-.271-.406-.406-.064-.062-.123-.125-.188-.188-.328-.334-.666-.666-1-1-.323-.328-.64-.671-.969-1-.326-.332-.668-.668-1-1-.326-.332-.668-.668-1-1-.26-.264-.549-.517-.813-.781-.064-.062-.123-.125-.188-.188-.267-.271-.542-.541-.813-.813-.064-.062-.123-.125-.188-.188-.267-.271-.542-.541-.813-.813-.064-.062-.123-.125-.188-.188-.103-.104-.209-.208-.313-.313-.225-.224-.429-.464-.656-.688-.326-.332-.668-.668-1-1-.326-.332-.668-.668-1-1-.26-.264-.549-.517-.813-.781-.064-.062-.123-.125-.188-.188-.267-.271-.542-.541-.813-.813-.064-.062-.123-.125-.188-.188-.267-.271-.542-.541-.813-.813-.064-.062-.123-.125-.188-.188-.323-.328-.64-.671-.969-1-.326-.332-.668-.668-1-1-.326-.332-.668-.668-1-1-.26-.264-.549-.517-.813-.781-.064-.062-.124-.126-.188-.188-.267-.271-.542-.541-.813-.813-.064-.062-.123-.125-.188-.188-.267-.271-.542-.541-.813-.813-.064-.062-.123-.125-.188-.188-.256-.261-.521-.52-.781-.781-.074-.072-.145-.147-.219-.219-4.564-4.64-9.754-9.373-13.5-12.188-12.732-9.568-26.729-16.23-41.28-19.656-9.486-2.233-12.902-2.608-23.969-2.594m15.75 278.94c.065.06.122.127.188.188-.032-.008-.091-.022-.125-.031-.018-.048-.047-.116-.063-.156m.938.875c.109.099.203.214.313.313-.045-.012-.137-.018-.188-.031-.033-.087-.101-.221-.125-.281m.969.906c.022.02.041.043.063.063.108.1.204.213.313.313.027.025.067.037.094.063-.096-.027-.174-.058-.313-.094-.04-.104-.131-.281-.156-.344m.875.844c.167.156.332.314.5.469.054.05.103.106.156.156-.115-.034-.232-.073-.438-.125-.057-.149-.192-.438-.219-.5m1.063 1c.022.02.041.042.063.063.208.197.416.398.625.594-.102-.035-.24-.09-.5-.156-.056-.147-.16-.436-.188-.5m.938.875c.24.229.477.461.719.688.032.03.062.063.094.094-.085-.034-.26-.079-.563-.156-.071-.185-.225-.574-.25-.625m1 .938c.302.294.602.585.906.875-.039-.028-.292-.094-.656-.188-.079-.207-.226-.639-.25-.688m1 .969c.063.061.124.126.188.188.202.2.422.395.625.594.043.041.082.084.125.125.199.189.394.375.594.563.154.151.314.287.469.438l.063.063c.136.126.27.25.406.375.027.025.067.037.094.063.047.047.078.109.125.156.135.126.271.25.406.375.072.073.147.146.219.219.085.082.165.168.25.25.043.041.082.085.125.125.037.036.088.057.125.094.005.005-.005.026 0 .031.166.158.333.312.5.469.203.196.389.399.594.594.203.198.389.398.594.594.25.246.498.507.75.75.34.335.688.669 1.031 1 .084.083.166.167.25.25.317.318.649.623.969.938.166.167.333.334.5.5.051.052.105.104.156.156.528.523 1.057 1.05 1.594 1.563.071.075.147.144.219.219.126.123.248.253.375.375.199.196.393.399.594.594.08.086.169.165.25.25.115.114.228.231.344.344.041.043.084.082.125.125.259.26.52.524.781.781.067.069.121.15.188.219l.094.094c.053.052.103.104.156.156.144.147.293.292.438.438.191.198.37.398.563.594.136.136.27.271.406.406.062.064.126.124.188.188.042.041.083.084.125.125.31.326.624.647.938.969.539.567 1.107 1.101 1.656 1.656.084.092.165.19.25.281.104.104.208.209.313.313.141.151.296.287.438.438.025.027.037.067.063.094l.094.094c.189.195.372.4.563.594.194.202.399.393.594.594.06.065.127.123.188.188.25.262.467.553.719.813.132.139.274.268.406.406.041.042.084.083.125.125.263.28.516.566.781.844-.073-.033-.271-.105-.594-.188-.089-.232-.297-.763-.313-.781-.023-.027-.306-.114-.719-.219-.086-.226-.266-.763-.281-.781-.022-.026-.27-.12-.656-.219-.089-.232-.297-.763-.313-.781-.022-.026-.305-.089-.688-.188-.094-.247-.297-.794-.313-.813-.022-.026-.305-.089-.688-.188-.094-.247-.297-.794-.313-.813-.022-.026-.318-.116-.719-.219-.081-.212-.267-.733-.281-.75-.022-.026-.302-.12-.688-.219-.089-.232-.297-.763-.313-.781-.022-.027-.306-.114-.719-.219-.086-.226-.266-.763-.281-.781-.022-.026-.287-.116-.688-.219-.087-.229-.266-.763-.281-.781-.022-.026-.305-.089-.688-.188-.094-.247-.297-.794-.313-.813-.022-.026-.305-.089-.688-.188-.094-.247-.297-.794-.313-.813-.022-.026-.318-.116-.719-.219-.081-.212-.267-.733-.281-.75-.022-.026-.302-.12-.688-.219-.089-.232-.297-.763-.313-.781-.022-.027-.306-.114-.719-.219-.086-.226-.266-.763-.281-.781-.022-.027-.306-.114-.719-.219-.086-.226-.266-.763-.281-.781-.022-.026-.27-.12-.656-.219-.089-.232-.297-.763-.313-.781-.021-.026-.305-.089-.688-.188-.094-.247-.297-.794-.313-.813-.022-.026-.318-.116-.719-.219-.081-.212-.267-.733-.281-.75-.022-.026-.302-.12-.688-.219-.089-.232-.297-.763-.313-.781-.022-.027-.306-.114-.719-.219-.086-.226-.266-.763-.281-.781-.022-.027-.306-.114-.719-.219-.086-.226-.266-.763-.281-.781-.021-.026-.27-.12-.656-.219-.089-.232-.297-.763-.313-.781-.021-.026-.305-.089-.688-.188-.082-.216-.227-.675-.25-.719m22.844 22.906c.126.134.249.273.375.406.136.147.27.291.406.438-.101-.035-.237-.089-.5-.156-.078-.205-.26-.647-.281-.688m1 1.063c.03.033.064.061.094.094.031.032.063.062.094.094.165.179.334.353.5.531-.113-.034-.229-.072-.438-.125-.065-.171-.226-.542-.25-.594m1.125 1.188c.039.044.086.081.125.125.093.096.188.185.281.281.015.017.016.046.031.063l.031.031c-.093-.026-.181-.029-.313-.063-.05-.132-.127-.368-.156-.438m1.031 1.125c.106.113.206.232.313.344-.046-.012-.135-.049-.188-.063-.032-.085-.102-.223-.125-.281m.969 1.031c.03.032.063.062.094.094.065.071.122.148.188.219-.047-.012-.135-.049-.188-.063-.028-.073-.073-.198-.094-.25m1.063 1.156c.015.016.047.015.063.031.01.011.021.02.031.031.016.017.016.046.031.063-.025-.006-.068-.025-.094-.031-.01-.027-.022-.07-.031-.094" fill-opacity=".235"/><path d="m256 1c-140.83 0-255 114.17-255 255s114.17 255 255 255 255-114.17 255-255-114.17-255-255-255m8.827 44.931c120.9 0 218.9 98 218.9 218.9s-98 218.9-218.9 218.9-218.93-98-218.93-218.9 98.03-218.9 218.93-218.9" fill-opacity=".067"/><g fill-opacity=".129"><path d="m256 4.433c-138.94 0-251.57 112.63-251.57 251.57s112.63 251.57 251.57 251.57 251.57-112.63 251.57-251.57-112.63-251.57-251.57-251.57m5.885 38.556c120.9 0 218.9 98 218.9 218.9s-98 218.9-218.9 218.9-218.93-98-218.93-218.9 98.03-218.9 218.93-218.9"/><path d="m256 8.356c-136.77 0-247.64 110.87-247.64 247.64s110.87 247.64 247.64 247.64 247.64-110.87 247.64-247.64-110.87-247.64-247.64-247.64m2.942 31.691c120.9 0 218.9 98 218.9 218.9s-98 218.9-218.9 218.9-218.93-98-218.93-218.9 98.03-218.9 218.93-218.9"/></g><path d="m253.04 7.859c-135.42 0-245.19 109.78-245.19 245.19 0 135.42 109.78 245.19 245.19 245.19 135.42 0 245.19-109.78 245.19-245.19 0-135.42-109.78-245.19-245.19-245.19zm0 26.297c120.9 0 218.9 98 218.9 218.9s-98 218.9-218.9 218.9-218.93-98-218.93-218.9 98.03-218.9 218.93-218.9z" fill="#fff" stroke="#000" stroke-opacity=".31" stroke-width="4.904"/></g><text x="729.64001" y="231.36"><tspan x="729.64001" y="231.36"/></text><text transform="scale(4.0128 .2492)" x="378.91" y="579.25"/><text x="1310.91" y="151.36"><tspan x="1310.91" y="151.36"/></text><text transform="scale(4.0128 .2492)" x="523.76001" y="258.22"/><text x="239.33" y="-29.900999"><tspan x="239.33" y="-29.900999"/></text><text transform="scale(4.0128 .2492)" x="256.72" y="-469.14001"/><text x="1337.38" y="-246.37"><tspan x="1337.38" y="-246.37"/></text><text transform="scale(4.0128 .2492)" x="530.35999" y="-1337.8101"/><text x="1918.65" y="-326.38"><tspan x="1918.65" y="-326.38"/></text><text transform="scale(4.0128 .2492)" x="675.21002" y="-1658.85"/><text x="1529.53" y="-798.78003"><tspan x="1529.53" y="-798.78003"/></text><text transform="scale(4.0128 .2492)" x="578.23999" y="-3554.51"/><text x="2110.79" y="-878.78003"><tspan x="2110.79" y="-878.78003"/></text><text transform="scale(4.0128 .2492)" x="723.09003" y="-3875.54"/><text x="277.98999" y="535.94"><tspan x="277.98999" y="535.94"/></text><path d="m266.29 104.9c-11.787.015-18.301.897-27.939 3.815-5.311 1.608-12.06 4.178-12.854 4.886-.363.324 2.797 10.771 3.258 10.771.104 0 1.946-.72 4.079-1.599 24.24-9.992 52.11-8.783 76.19 3.316 25.512 12.822 44.636 34.868 54.23 62.5 1.099 3.164 2.236 5.752 2.524 5.752s2.482-.657 4.872-1.453 4.344-1.611 4.344-1.82c0-.751-3.717-11.138-5.385-15.04-4.03-9.424-10.776-20.57-17.477-28.878-4.891-6.06-14.594-15.497-20.587-20-12.732-9.568-26.755-16.237-41.31-19.663-9.486-2.233-12.881-2.597-23.948-2.583m-.499 29.715c-11.453 0-19.1 1.518-30.8 6.119l-1.262.484 1.688 4.842c.929 2.661 1.729 4.903 1.775 4.974.047.071 1.751-.55 3.786-1.365 20.954-8.39 44.991-5.765 63.846 6.97 14.778 9.981 25.11 23.921 31.886 43.01.941 2.651 1.488 3.588 1.966 3.404.364-.14 2.186-.705 4.05-1.262 5.461-1.633 5.193-1.126 3.316-6.398-13.04-36.629-44.936-60.779-80.25-60.779m-1.937 27.01c-4.04.017-8.092.507-12.08 1.497-4.51 1.12-9.67 3.079-9.67 3.668 0 .296.651 2.509 1.453 4.916 1.203 3.611 1.593 4.309 2.231 4.04 5.573-2.395 13.265-3.947 19.472-3.947 7.792 0 16.08 2.199 22.598 6 4.653 2.716 12.253 10.07 15.628 15.13 3.209 4.806 5.8 10.01 8.613 17.256.226.581.545 1.057.704 1.057.16 0 2.387-.658 4.945-1.453s4.652-1.626 4.652-1.849c0-.905-2.587-7.5-4.314-11.01-10.73-21.782-32.405-35.392-54.23-35.31m-125.53 16.288c-.789 1.277-1.532 14.923-1.247 22.891 1.08 30.25 10.648 57.31 28.673 81.09 28.23 37.24 75.49 58.46 121.76 54.689 25.999-2.12 50.555-11.1 71.43-26.12 6.216-4.472 12.364-9.661 11.93-10.08-.186-.18-25.17-13.471-55.51-29.524-30.345-16.05-55.22-29.22-55.28-29.27-.054-.055 1.213-2.602 2.817-5.664l2.92-5.576 2.714-.822c9.726-2.946 13.299-16.226 6.075-22.568-2.315-2.032-4.302-2.764-7.484-2.759-8.696.015-15.321 9.536-12.473 17.931l.91 2.685-2.876 5.532c-1.585 3.046-3.088 5.502-3.331 5.459s-25.25-13.2-55.57-29.24c-35.591-18.832-55.26-28.981-55.47-28.643m47.529 143.2c-.218 0-1.527 3.645-2.906 8.1-4.626 14.953-13.497 40.895-16.816 49.19-3.694 9.228-5.747 13.938-9.89 22.671l-2.847 6.02 59.03-.323c32.469-.177 59.08-.359 59.15-.411.066-.052-1.546-3.568-3.58-7.807-6.882-14.335-12.782-28.579-17.785-42.921-1.171-3.358-2.187-6.177-2.26-6.266-.072-.089-2.613-.683-5.635-1.321-20.15-4.253-37.628-12.264-52.46-24.05-1.989-1.58-3.788-2.876-4.01-2.876" fill="#fff" fill-rule="evenodd"/></svg>