<svg height="64" viewBox="0 0 128 128" width="64" xmlns="http://www.w3.org/2000/svg" xmlns:xlink="http://www.w3.org/1999/xlink"><linearGradient id="a" gradientUnits="userSpaceOnUse" x1="0" x2="128" y1="128" y2="0"><stop offset="0" stop-color="#333"/><stop offset="1" stop-color="#5d5d5d"/></linearGradient><path d="m15.15625 16.84375c-4.093462 0-7.40625 3.312788-7.40625 7.40625v13.125 11.21875 40.53125c0 4.093456 3.312788 7.375 7.40625 7.375h43v4.65625h-5.9375c-1.43851 0-2.59375 1.15524-2.59375 2.59375v4.8125c0 1.43851 1.15524 2.59375 2.59375 2.59375h23.5625c1.43851 0 2.59375-1.15524 2.59375-2.59375v-4.8125c0-1.43851-1.15524-2.59375-2.59375-2.59375h-5.9375v-4.65625h43c4.09346 0 7.40625-3.281544 7.40625-7.375v-51.75c0-4.093462-3.31287-7.34985-7.40625-7.375h-59.4375v-5.75c0-4.093462-3.281538-7.40625-7.375-7.40625zm59.75 36.28125c1.29417.00002 2.373739.206779 3.28125.625.915384.418259 1.52051.954571 1.8125 1.59375.299859.631323.468738 1.69574.46875 3.21875v.75h-4.625v-1.40625c-.000007-.662856-.069137-1.099734-.1875-1.28125-.118377-.181484-.31756-.249984-.59375-.25-.299876.000016-.529679.130385-.6875.375-.149941.244647-.218755.596612-.21875 1.09375-.000005.639212.076385 1.113969.25 1.4375.165712.323557.632894.729816 1.40625 1.1875 2.217453 1.317862 3.611423 2.405638 4.1875 3.25.576055.84438.874988 2.184371.875 4.0625-.000012 1.365203-.176467 2.384164-.5 3.03125-.315664.64709-.928367 1.183086-1.84375 1.625-.915403.434023-1.972243.65625-3.1875.65625-1.333639 0-2.459295-.244955-3.40625-.75-.93907-.505044-1.551772-1.156257-1.84375-1.9375-.29198-.781238-.468751-1.876275-.46875-3.3125v-1.28125h4.65625v2.34375c-.000005.718114.061233 1.169829.1875 1.375.134147.205177.356058.312503.6875.3125.331429.000003.560917-.114583.71875-.375.165711-.26041.249993-.64331.25-1.15625-.000007-1.128454-.129745-1.871525-.4375-2.21875-.315659-.347211-1.104818-.937186-2.34375-1.75-1.238941-.820689-2.066295-1.410348-2.46875-1.78125-.402459-.370882-.731696-.876259-1-1.53125-.260414-.654968-.375001-1.513256-.375-2.53125-.000001-1.467771.160357-2.540079.53125-3.21875.378782-.678636 1.007267-1.183698 1.84375-1.5625.836477-.386656 1.847546-.59373 3.03125-.59375zm-27.78125.40625h4.15625l2.8125 8.625v-8.625h4.15625v19.15625h-4.375l-2.59375-8.71875v8.71875h-4.15625zm13.125 0h8.4375v3.84375h-3.46875v3.625h3.09375v3.65625h-3.09375v8.03125h-4.96875zm-52.5 49.375v6.5h39.59375c-.0011-.0436 0-.0811 0-.125v-5.4375c0-.31974.03785-.63441.09375-.9375zm72.8125 0c.0559.30309.09375.61776.09375.9375v5.4375c0 .0439.0011.0814 0 .125h39.59375v-6.5z" fill="url(#a)"/></svg>