<svg height="24" viewBox="0 0 24 24" width="24" xmlns="http://www.w3.org/2000/svg"><g fill="none"><path d="m0 0h24v24h-24z"/><path d="m16 12c1.6569 0 3 1.3431 3 3v6c0 .5523-.4477 1-1 1s-1-.4477-1-1v-6c0-.5523-.4477-1-1-1h-7.99998c-.55229 0-1 .4477-1 1v6c0 .5523-.44772 1-1 1-.55229 0-1-.4477-1-1v-6c0-1.6569 1.34314-3 3-3zm-1.99999 4c.55229 0 1 .4477 1 1 0 .51285-.3860357.9355092-.8833779.9932725l-.1166221.0067275h-4c-.55228 0-1-.4477-1-1 0-.51285.38604429-.9355092.88337975-.9932725l.11662025-.0067275zm-2.00001-8c1.0608 0 2.0472.33148 2.8574.89649.453.31591.5641.93925.2482 1.39221-.3159.4531-.9392.5642-1.3922.2483-.4855-.3386-1.0748-.537-1.7134-.537-.6385 0-1.2277.1984-1.7132.5368-.45302.3159-1.07635.2047-1.39223-.2483-.31588-.45301-.2047-1.07634.24833-1.39222.81015-.56489 1.7964-.89628 2.8571-.89628zm-.0001-3c1.9183 0 3.6812.67641 5.0595 1.80278.4276.34949.491.97948.1415 1.40712s-.9795.49099-1.4072.1415c-1.0341-.84517-2.3535-1.3514-3.7938-1.3514-1.4395 0-2.75825.50569-3.79215 1.35005-.42776.34935-1.05773.28577-1.40707-.14199s-.28577-1.05772.14199-1.40706c1.37792-1.12531 3.14003-1.801 5.05723-1.801zm.0002-3c2.7568 0 5.2789 1.01541 7.2089 2.69127.417.3621.4615.9937.0994 1.41072-.3621.41701-.9937.46153-1.4107.09943-1.5801-1.372-3.6407-2.20142-5.8976-2.20142-2.25869 0-4.32083.83073-5.9014 2.20468-.41682.36233-1.04844.31815-1.41077-.09866-.36233-.41682-.31816-1.04844.09866-1.41077 1.93061-1.67823 4.45452-2.69525 7.21351-2.69525z" fill="#09244b"/></g></svg>