<svg height="85.333336" viewBox="0 0 85.333336 85.333336" width="85.333336" xmlns="http://www.w3.org/2000/svg"><g transform="matrix(.13333333 0 0 -.13333333 0 85.333333)"><path d="m640 320c0-176.738-143.262-320-320-320s-320 143.262-320 320 143.262 320 320 320 320-143.262 320-320" fill="#de6724"/><path d="m422.73 183.457c13.149-22.496 40.5-32.367 64.989-23.457 24.488 8.91 39.097 34.063 34.707 59.746l-19.828 116.067c-4.868 28.488-22.129 53.347-47.125 67.871-24.993 14.515-55.141 17.195-82.297 7.308l-30.481-11.094c-14.66-5.335-30.73-5.335-45.39 0l-30.481 11.094c-27.156 9.887-57.304 7.207-82.297-7.308-24.996-14.524-42.257-39.383-47.125-67.871l-19.828-116.067c-4.39-25.683 10.219-50.836 34.707-59.746 24.489-8.91 51.84.961 64.989 23.457l2.148 3.672c11.895 20.355 33.703 32.871 57.281 32.871h86.602c23.578 0 45.387-12.516 57.281-32.871z" fill="#4f6366"/><g fill="#f5f5e6"><path d="m429.996 360c0-11.047-8.957-20-20-20-11.047 0-20 8.953-20 20s8.953 20 20 20c11.043 0 20-8.953 20-20"/><path d="m429.996 280c0-11.047-8.957-20-20-20-11.047 0-20 8.953-20 20s8.953 20 20 20c11.043 0 20-8.953 20-20"/><path d="m449.996 300c-11.047 0-20 8.953-20 20s8.953 20 20 20c11.043 0 20-8.953 20-20s-8.957-20-20-20"/><path d="m369.996 300c-11.047 0-20 8.953-20 20s8.953 20 20 20c11.043 0 20-8.953 20-20s-8.957-20-20-20"/></g><path d="m425.559 489.926c-.641-1.11-1.438-2.156-2.395-3.102-5.855-5.871-15.355-5.863-21.199-.004-40.949 40.938-107.555 40.946-148.508-.004-5.855-5.843-15.348-5.847-21.207.004-5.855 5.868-5.863 15.352.008 21.215 52.621 52.629 138.273 52.641 190.91 0 4.918-4.894 5.711-12.375 2.391-18.109" fill="#f5bb3d"/><path d="m383.141 447.504c-.641-1.109-1.442-2.168-2.399-3.117-5.859-5.848-15.355-5.852-21.215.011-8.492 8.497-19.8 13.18-31.812 13.176-12.024.004-23.324-4.679-31.824-13.176-5.856-5.851-15.344-5.851-21.211-.003-5.852 5.855-5.867 15.375.004 21.21 14.16 14.176 32.992 21.973 53.035 21.977 20.035-.016 38.867-7.801 53.023-21.98 4.91-4.903 5.707-12.36 2.399-18.098" fill="#f5bb3d"/><path d="m239.996 285c0-5.523-4.476-10-10-10h-10c-5.523 0-10 4.477-10 10v80c0 5.523 4.477 10 10 10h10c5.524 0 10-4.477 10-10z" fill="#f5f5e6"/><path d="m184.996 310c-5.523 0-10 4.477-10 10v10c0 5.523 4.477 10 10 10h80c5.524 0 10-4.477 10-10v-10c0-5.523-4.476-10-10-10z" fill="#f5f5e6"/></g></svg>